<svg xmlns="http://www.w3.org/2000/svg" width="184" height="65" viewBox="0 0 184 40" xml:space="preserve" aria-hidden="true" focusable="false"><g fill="none" fill-rule="evenodd"><path fill="#3D3D3D" d="M182.244 22.555c.246 0 .383-.128.383-.308 0-.203-.137-.312-.383-.312h-.455v.62h.455zm-.818-.94h.85c.415 0 .724.204.724.599 0 .31-.181.502-.438.577l.502.717h-.437l-.446-.652h-.392v.652h-.363v-1.892zm2.362.983v-.01c0-.909-.703-1.657-1.64-1.657-.924 0-1.634.76-1.634 1.667v.011c0 .91.698 1.658 1.634 1.658.926 0 1.64-.76 1.64-1.669zm-3.487.011v-.011c0-1.015.817-1.871 1.847-1.871 1.043 0 1.852.845 1.852 1.862v.009c0 1.016-.818 1.874-1.852 1.874a1.848 1.848 0 0 1-1.847-1.863zm-7.463 4.2l5.914-6.043h-3.18l-6.93 7.223V16h-2.49v18.714h2.49v-3.658l2.473-2.496 4.729 6.154h3.003l-6.01-7.905zm-14.421-6.33c-2.05-.004-3.444.898-4.375 2.095v-1.808h-2.489v13.948h2.489v-7.95c.012-2.413 1.606-3.969 3.802-3.98 2.251.02 3.463 1.408 3.486 3.823v8.107h2.49v-8.602c0-1.648-.49-3.061-1.424-4.062-.932-1-2.296-1.571-3.98-1.57zm-11.737 9.046c-.002.99-.46 1.82-1.22 2.423-.764.599-1.833.957-3.024.957-.869 0-1.668-.238-2.236-.66-.567-.423-.911-1.013-.914-1.782v-.053c.003-1.44 1.247-2.45 3.697-2.468 1.522 0 2.743.25 3.697.513v1.07zm-3.565-8.967c-2.02-.002-3.502.483-5.002 1.168l-.204.091.766 2.096.238-.109c1.234-.565 2.442-.941 3.992-.942 1.229 0 2.16.304 2.783.863.62.561.964 1.391.966 2.543v.102a14.29 14.29 0 0 0-3.88-.499c-1.74.001-3.231.385-4.302 1.165-1.074.776-1.704 1.967-1.7 3.48v.05c-.004 1.455.67 2.588 1.664 3.326.994.74 2.3 1.108 3.61 1.108h.009c2.113 0 3.606-.853 4.6-1.887v1.601h2.462v-8.472c.002-1.76-.485-3.139-1.479-4.128-1.023-1.023-2.579-1.556-4.523-1.556zm-10.173 8.81c-.005 1.864-1.534 2.996-4.244 3.015h-5.887v-5.952h5.521c1.563-.001 2.733.284 3.488.78.752.5 1.117 1.184 1.122 2.105v.052zM122.811 18.33h5.313c2.548.022 3.79 1.088 3.802 2.729v.052c-.004 1.003-.392 1.728-1.074 2.235-.682.506-1.68.781-2.885.78h-5.156V18.33zm9.184 6.671c1.297-.711 2.503-1.997 2.498-4.177v-.052c.001-1.229-.446-2.265-1.24-3.084-1.107-1.076-2.815-1.688-4.947-1.688h-8.01v18.714h8.348c2.034 0 3.739-.469 4.952-1.363 1.214-.89 1.916-2.221 1.913-3.853v-.052c.007-2.405-1.566-3.739-3.514-4.445zm-23.764 9.713h-4.872V20.768h4.872v1.96c.897-1.16 2.178-2.217 4.153-2.217 2.948 0 4.717 1.96 4.717 5.13v9.073h-4.872v-7.5c0-1.548-.794-2.372-1.946-2.372-1.18 0-2.052.824-2.052 2.372v7.5zM94.02 24.635c-1.794 0-2.897 1.366-2.897 3.094 0 1.752 1.23 3.146 2.948 3.146 1.797 0 2.898-1.368 2.898-3.095 0-1.753-1.23-3.145-2.949-3.145zm0 10.363c-4.435 0-7.64-3.222-7.64-7.218 0-3.995 3.23-7.27 7.691-7.27 4.436 0 7.641 3.223 7.641 7.219 0 3.996-3.23 7.27-7.692 7.27zm-14.28-15.82h4.872V16h-4.871v3.178zm0 15.536h4.872V20.768h-4.871v13.946zm-11.487 0h-4.87V20.768h4.87v1.96c.898-1.16 2.18-2.217 4.155-2.217 2.948 0 4.717 1.96 4.717 5.13v9.073h-4.871v-7.5c0-1.548-.796-2.372-1.95-2.372-1.178 0-2.05.824-2.05 2.372v7.5zm-7.536-8.094c0 5.826-3.308 8.378-8.41 8.378S44 32.421 44 26.75V16.001h5.051v10.671c0 2.577 1.308 3.816 3.308 3.816 2 0 3.307-1.162 3.307-3.687V16h5.052V26.62z"></path> <path fill="#E51B24" d="M0 4v22.552c0 10.23 6.183 11.765 8.2 12.082 2.115.331 4.817-.657 5.993-2.424-1.474-.884-1.608-3.857-1.608-7.358V15.505C12.585 6.892 6.427 4 0 4m29 9.427v12.955c0 10.66-9.703 14.686-18.567 13.38 3.108-.784 5.982-2.853 5.982-8.488v-5.939c0-5.606 1.768-10.971 12.585-11.908"></path></g></svg>