<?xml version="1.0" encoding="utf-8"?>
<!-- Generator: Adobe Illustrator 21.0.2, SVG Export Plug-In . SVG Version: 6.00 Build 0)  -->
<svg version="1.1" id="Layer_1" xmlns="http://www.w3.org/2000/svg" xmlns:xlink="http://www.w3.org/1999/xlink" x="0px" y="0px"
	 viewBox="0 0 226.5 65.5" enable-background="new 0 0 226.5 65.5" xml:space="preserve">
<g>
	<g>
		<g>
			<g>
				<path fill="#2B2B2B" d="M169.5,3.7c0,0,0,11.3,0,11.2h15V3.7h7.4c0,0,0,28,0,28.1h-7.4c0,0,0-12.3,0-12.4h-15
					c0,0.1,0,12.4,0,12.4h-7.4V3.7H169.5z"/>
				<path fill="#2B2B2B" d="M98.8,3.7c0,0.1,0,4.8,0,4.8H87.5v23.3h-7.4V8.6H68.7V3.8C68.7,3.7,98.8,3.7,98.8,3.7z"/>
				<path fill="#2B2B2B" d="M127.8,31.8h-8.3l-2.4-6h-13.9l-2.4,6h-8.3l13-28.1h9.1L127.8,31.8z M110,8.6l-5.2,12.8h10.4L110,8.6"/>
				<rect x="197.8" y="3.7" fill="#2B2B2B" width="7.4" height="28.1"/>
				<path fill="#2B2B2B" d="M30.2,3.7c0,0,0,11.3,0,11.2h15V3.7h7.4c0,0,0,28,0,28.1h-7.4c0,0,0-12.3,0-12.4h-15
					c0,0.1,0,12.4,0,12.4h-7.4V3.7H30.2z"/>
				<rect x="58.6" y="3.7" fill="#2B2B2B" width="7.4" height="28.1"/>
				<path fill="#2B2B2B" d="M127.5,24.1c-0.7-1.9-1-3.9-1-6c0-3,0.5-5.8,1.9-8.2c1.5-2.4,3.7-4.3,6.4-5.3c2.6-1,5.3-1.5,8.2-1.5
					c3.3,0,6.5,0.7,9.4,2c2.7,1.2,4.7,3.6,5.3,6.5c0.1,0.6,0.2,1.2,0.3,1.8h-7.8c0-0.8-0.1-1.5-0.4-2.2c-0.6-1.6-1.9-2.8-3.5-3.2
					c-1-0.3-2.1-0.5-3.3-0.5c-1.3,0-2.5,0.2-3.7,0.6c-1.9,0.7-3.4,2.2-4.1,4.1c-0.7,1.8-1,3.8-1,5.9c0,1.7,0.3,3.4,0.7,4.9
					c0.6,2,2.1,3.7,4.1,4.4c1.2,0.5,2.6,0.7,4,0.7c1.2,0,2.4-0.2,3.4-0.5c1.5-0.5,2.6-1.5,3.3-2.9c0.4-0.9,0.6-1.9,0.6-3h7.8
					c0,0.9-0.2,1.8-0.4,2.7c-0.7,2.8-2.6,5.1-5.2,6.2c-2.9,1.2-6.2,2-9.6,2c-2.6,0-5.2-0.4-7.5-1.2
					C131.9,30.2,128.8,27.6,127.5,24.1z"/>
			</g>
		</g>
	</g>
	<g>
		<path fill="#2B2B2B" d="M16.1,39.7l-6.6,0.6v1h0.2c2.7,0.3,2.7,0.3,2.7,2.2v13.9h4V39.7H16.1z"/>
		<path fill="#2B2B2B" d="M30.1,44.9c-2.5,0-3.9,1.7-4.6,2.7c0-0.9,0-2.7,0-2.7h-0.3l-5.4,0.8v0.9h0.2c1.7,0,2.1,0.4,2.1,2v8.7h3.3
			v-6.4c0-1.7,1.6-3.9,3.3-3.9c1.6,0,1.7,1.3,1.7,3.5v6.8h3.4v-8.6C33.8,46.2,32.5,44.9,30.1,44.9z"/>
		<path fill="#2B2B2B" d="M43.2,49.8c-1.3-0.7-2.5-1.2-2.5-2.1c0-1,1.2-1.1,1.8-1.1c1.4,0,2.6,0.8,3.1,1.1l0.5,0.3v-0.4v-2.1
			l-0.4-0.1c-0.6-0.1-1.7-0.4-3-0.4c-3.2,0-5,1.4-5,3.6c0,2,2,3,3.7,3.8c1.3,0.7,2.6,1.3,2.6,2.3c0,0.9-0.8,1.5-2.2,1.5
			c-1.6,0-2.9-0.8-3.7-1.3l-0.4-0.2v2.6l0.2,0.1c0.7,0.2,1.9,0.4,3.7,0.4c3.4,0,5.4-1.4,5.4-3.7C47.1,51.7,45.1,50.7,43.2,49.8z"/>
		<path fill="#2B2B2B" d="M58,44.9c-1.2,0-2.5,0.6-3.5,1.7c0-0.6,0-1.8,0-1.8h-0.3l-5.4,0.8v0.9h0.2c1.7,0,2,0.4,2,2v13.9h3.4
			c0,0,0-5.3,0-6.3c0.6,0.8,1.6,1.4,3.4,1.4c3.5,0,5.4-2.3,5.4-6.6C63.2,47.2,61.2,44.9,58,44.9z M57,46.8c2.3,0,2.6,2.5,2.6,4.3
			c0,3.2-0.8,4.7-2.5,4.7c-2.2,0-2.6-2-2.6-3.7v-1C54.3,49.8,54.7,46.8,57,46.8z"/>
		<g>
			<path fill="#2B2B2B" d="M65.6,45.8v0.9h0.2c1.6,0,2,0.4,2,2v8.7h3.4V44.8h-0.3L65.6,45.8z"/>
			<path fill="#2B2B2B" d="M69.5,43.4c1.2,0,2.1-0.8,2.1-1.8s-0.9-1.8-2.1-1.8c-1.1,0-2.1,0.8-2.1,1.8
				C67.5,42.6,68.3,43.4,69.5,43.4z"/>
		</g>
		<path fill="#2B2B2B" d="M85.2,47.7v-2.6H85C84.5,45,83.8,45,83.3,45c-1.9,0-2.9,1.4-3.4,2.5c0-1,0-2.5,0-2.5h-0.3l-5.4,0.8v0.9
			h0.2c1.7,0,2,0.4,2,2v8.7h3.3v-6.3c0-1.1,0.3-3.5,3.5-3.5c0.4,0,0.8,0.1,1.2,0.2l0.5,0.2v-0.3H85.2z"/>
		<path fill="#2B2B2B" d="M98.3,49.9c0-3.4-1.9-5.1-5.6-5.1c-4.2,0-6.3,2-6.3,6c0,4.3,2.7,6.8,7.3,6.8c2,0,3.5-0.5,4.1-0.7l0.2-0.1
			v-1.6l-0.3,0.1c-0.6,0.2-1.5,0.4-2.6,0.4c-3.6,0-4.9-3-5-5.6c0.5,0,8.2,0,8.2,0L98.3,49.9L98.3,49.9z M92.8,46.2
			c1.8,0,2.3,1.3,2.3,2.5c-0.4,0-4.4,0-4.8,0C90.3,47.8,90.8,46.2,92.8,46.2z"/>
	</g>
	<g>
		<path fill="#2B2B2B" d="M129,44.9c-2.5,0-3.9,1.5-4.6,2.7c0-1.4,0-8.4,0-8.4H124l-5.3,0.7v0.9h0.2c1.7,0.1,2,0.4,2,2.1v14.5h3.3
			v-6.2c0-2.3,1.7-4.1,3.2-4.1c1.9,0,1.9,1.4,1.9,2.6v7.6h3.3v-8C132.8,48.1,132.8,44.9,129,44.9z"/>
		<path fill="#2B2B2B" d="M147.8,49.9c0-3.4-1.9-5.1-5.6-5.1c-4.2,0-6.3,2-6.3,6c0,4.3,2.7,6.8,7.3,6.8c2,0,3.5-0.5,4.1-0.7l0.2-0.1
			v-1.6l-0.3,0.1c-0.6,0.2-1.5,0.4-2.6,0.4c-3.6,0-4.9-3-5-5.6c0.5,0,8.2,0,8.2,0V49.9L147.8,49.9z M142.1,46.2
			c1.8,0,2.3,1.3,2.3,2.5c-0.4,0-4.4,0-4.8,0C139.6,47.8,140.2,46.2,142.1,46.2z"/>
		<path fill="#2B2B2B" d="M110.2,41.4c0,0,0,3.4,0,3.8c-0.4,0-2.2,0-2.2,0v1.5c0,0,1.9,0,2.2,0c0,0.4,0,7.5,0,7.5
			c0,3.2,2.1,3.5,4.6,3.5c0.6,0,1.3-0.1,2-0.2h0.2v-1.5l-0.3,0.1c-0.3,0.1-0.6,0.1-1,0.1c-2,0-2.1-0.6-2.1-2.3c0,0,0-6.7,0-7.1
			c0.4,0,3.8,0,3.8,0v-1.5c0,0-3.4,0-3.8,0c0-0.4,0-3.8,0-3.8L110.2,41.4L110.2,41.4z"/>
	</g>
	<g>
		<path fill="#2B2B2B" d="M176.1,39.9h-3.4c0,0,0,12,0,13.3c-0.7-1-8.7-13.3-8.7-13.3h-7.7v1l0.7,0.1c2,0.3,2.2,0.4,2.2,2.4v14h3.6
			c0,0,0-12.6,0-13.9c0.7,1.1,9.2,13.9,9.2,13.9h4.4V39.9H176.1z"/>
		<path fill="#2B2B2B" d="M191.4,49.9c0-3.4-1.9-5.1-5.6-5.1c-4.2,0-6.3,2-6.3,6c0,4.2,2.7,6.8,7.3,6.8c2,0,3.5-0.5,4.1-0.7l0.2-0.1
			v-1.6l-0.3,0.1c-0.5,0.2-1.5,0.4-2.6,0.4c-3.6,0-4.9-3-5-5.6c0.5,0,8.2,0,8.2,0L191.4,49.9L191.4,49.9z M185.6,46.2
			c1.8,0,2.3,1.3,2.3,2.5c-0.4,0-4.4,0-4.8,0C183.2,47.8,183.9,46.2,185.6,46.2z"/>
		<path fill="#2B2B2B" d="M209.9,41.4c0,0,0,3.4,0,3.8c-0.4,0-2.3,0-2.3,0v1.5c0,0,1.9,0,2.3,0c0,0.4,0,7.5,0,7.5
			c0,3.2,2.1,3.5,4.6,3.5c0.6,0,1.3-0.1,2-0.2h0.2v-1.5l-0.3,0.1c-0.3,0.1-0.6,0.1-1,0.1c-2,0-2.1-0.6-2.1-2.3c0,0,0-6.7,0-7.1
			c0.4,0,3.8,0,3.8,0v-1.5c0,0-3.4,0-3.8,0c0-0.4,0-3.8,0-3.8L209.9,41.4L209.9,41.4z"/>
		<g>
			<path fill="#2B2B2B" d="M203,49.2l3.4-4h-3.5l-3.3,3.8l-2.9-3.8h-5.1v1h0.2c1.7,0.1,2.1,0.4,3.2,1.8l2.1,2.8l-3.4,4h3.5l1.5-1.8
				l3.3,4.4h4l-6.3-8.2C199.8,49.2,203,49.2,203,49.2z"/>
			<polygon fill="#ED1B34" points="209.9,41.4 206.2,41.4 210.5,36.4 214,36.4 			"/>
		</g>
	</g>
</g>
</svg>
