<?xml version="1.0" encoding="utf-8"?>
<!-- Generator: Adobe Illustrator 19.2.0, SVG Export Plug-In . SVG Version: 6.00 Build 0)  -->
<svg version="1.1" id="Layer_1" xmlns="http://www.w3.org/2000/svg" xmlns:xlink="http://www.w3.org/1999/xlink" x="0px" y="0px"
	 viewBox="0 0 210.6 46" style="enable-background:new 0 0 210.6 46;" xml:space="preserve">
<style type="text/css">
	.st0{fill:#FFFFFF;}
	.st1{fill:#DB0011;}
</style>
<title>180119_hsbc-uk-logo</title>
<rect x="23" y="0" class="st0" width="46" height="46"/>
<polygon class="st1" points="91.9,23 69,0 69,46 "/>
<polygon class="st1" points="46,23 69,0 23,0 "/>
<polygon class="st1" points="0,23 23,46 23,0 "/>
<polygon class="st1" points="46,23 23,46 69,46 "/>
<polygon points="112.2,24.4 103.8,24.4 103.8,32.6 99.6,32.6 99.6,13.4 103.8,13.4 103.8,21.3 112.2,21.3 112.2,13.4 116.3,13.4 
	116.3,32.6 112.2,32.6 "/>
<path d="M126.2,32.9c-4.1,0-7.6-1.7-7.6-6.2h4.1c0,2.1,1.3,3.2,3.5,3.2c1.7,0,3.6-0.9,3.6-2.7c0-1.5-1.3-1.9-3.5-2.6l-1.4-0.4
	c-3-0.9-6.1-2.1-6.1-5.6c0-4.3,4-5.7,7.6-5.7s7,1.3,7,5.6h-4.1c-0.1-1.8-1.2-2.7-3.1-2.7c-1.6,0-3.1,0.8-3.1,2.6
	c0,1.4,1.3,1.8,4,2.7l1.6,0.5c3.4,1,5.4,2.2,5.4,5.4C134.3,31.3,130.1,32.9,126.2,32.9"/>
<path d="M136.7,13.4h6.7c1.3-0.1,2.5,0,3.8,0.3c2.3,0.5,4.1,2.1,4.1,4.6s-1.6,3.8-3.9,4.4c2.6,0.5,4.5,1.8,4.5,4.6
	c0,4.4-4.3,5.4-7.8,5.4h-7.5V13.4z M143.3,21.4c1.8,0,3.8-0.4,3.8-2.6c0-1.9-1.8-2.6-3.5-2.6h-3v5.2L143.3,21.4z M143.8,29.7
	c1.9,0,3.9-0.5,3.9-2.8S146,24,144.1,24h-3.4v5.6h3.1L143.8,29.7z"/>
<path d="M162.8,32.9c-6.2,0-9-4-9-9.8S156.9,13,163,13c3.9,0,7.6,1.7,7.6,6.1h-4.3c-0.1-1.7-1.6-3.1-3.3-3c0,0,0,0,0,0
	c-3.8,0-4.9,4-4.9,7.1s1.2,6.6,4.8,6.6c1.8,0.1,3.4-1.2,3.6-3h4.4C170.3,31.2,166.8,32.9,162.8,32.9"/>
</svg>
